<svg width="776" height="660" viewBox="0 0 776 660" fill="none" xmlns="http://www.w3.org/2000/svg">
    <g>
        <path
            d="M289.565 17.0181C390.471 15.8737 490.549 68.9296 539.529 168.266C581.373 253.046 579.946 333.522 535.017 426.679C513.059 472.228 512.599 475.203 523.923 498.916C533.774 519.607 557.39 534.576 580.131 534.576C601.03 534.576 633.069 507.751 637.765 486.327C642.368 465.544 628.88 435.148 609.822 423.292C603.702 419.54 597.67 415.648 591.731 411.619C585.793 407.041 611.065 394.223 625.842 394.223C657.467 394.223 683.246 418.302 689.139 453.276C691.671 468.52 695.307 472.594 709.394 476.256C748.937 486.419 769.1 542.679 744.149 573.121C734.022 585.481 733.561 585.527 730.109 575.044C717.818 538.376 699.45 523.773 665.523 523.773C650.838 523.773 639.192 529.633 614.978 549.225C568.668 586.763 529.079 608.873 481.158 623.934C422.418 641.512 354.472 645.815 293.063 631.075C193.538 611.345 98.2478 534.485 51.2933 436.201C-7.3539 313.426 10.0009 186.074 97.3732 98.044C122.488 72.6489 152.387 52.4225 185.364 38.5199C218.34 24.6174 253.748 17.311 289.565 17.0181Z"
            fill="#FA5252" />
    </g>
</svg>